# File produced by Open Asset Import Library (http://www.assimp.sf.net)
# (assimp v3.1.187496374)

mtllib basicCharacter.obj.mtl

# 62 vertex positions
v  -2.00217 6 1
v  1.99784 6 1
v  1.99784 12 1
v  -2.00217 12 1
v  2.00217 12 -1
v  -1.99784 12 -1
v  2.00217 6 -1
v  -1.99784 6 -1
v  -2 12 2
v  2 12 2
v  2 16 2
v  -2 16 2
v  2 16 -2
v  -2 16 -2
v  2 12 -2
v  -2 12 -2
v  2 9 1
v  4 9 1
v  4 12 1
v  2 12 1
v  2 6 1
v  4 6 1
v  4 12 -1
v  2 12 -1
v  4 9 -1
v  2 9 -1
v  4 6 -1
v  2 6 -1
v  -4 9 1
v  -2 9 1
v  -2 12 1
v  -4 12 1
v  -4 6 1
v  -2 6 1
v  -2 12 -1
v  -4 12 -1
v  -2 9 -1
v  -4 9 -1
v  -2 6 -1
v  -4 6 -1
v  6.79825e-16 3 1
v  2 3 1
v  9.91012e-17 6 1
v  9.58756e-16 0 1
v  2 0 1
v  9.91012e-17 6 -1
v  2 3 -1
v  6.79825e-16 3 -1
v  2 0 -1
v  9.68069e-16 0 -1
v  -2 3 1
v  -1.00961e-15 3 1
v  2.0914e-16 6 1
v  -2 6 1
v  -2 0 1
v  -1.63752e-15 0 1
v  2.0914e-16 6 -1
v  -2 6 -1
v  -1.00961e-15 3 -1
v  -2 3 -1
v  -1.63163e-15 -1.19209e-07 -1
v  -2 -1.19209e-07 -1

# 104 UV coordinates
vt 0.46578 0.391188 0
vt 0.607623 0.391188 0
vt 0.607623 0.60395 0
vt 0.465781 0.60395 0
vt 0.607776 0.674871 0
vt 0.465934 0.674871 0
vt 0.820385 0.60395 0
vt 0.678543 0.60395 0
vt 0.678543 0.391188 0
vt 0.820385 0.391188 0
vt 0.465934 0.320267 0
vt 0.607776 0.320268 0
vt 0.39486 0.391188 0
vt 0.39486 0.60395 0
vt 0.214239 0.703683 0
vt 0.355532 0.703684 0
vt 0.355533 0.844979 0
vt 0.214239 0.844978 0
vt 0.355532 0.986273 0
vt 0.214239 0.986273 0
vt 0.638122 0.844978 0
vt 0.496827 0.844978 0
vt 0.496827 0.703683 0
vt 0.638122 0.703684 0
vt 0.214239 0.56239 0
vt 0.355533 0.562389 0
vt 0.0729437 0.703683 0
vt 0.0729436 0.844979 0
vt 0.83343 0.804498 0
vt 0.902824 0.804498 0
vt 0.902825 0.90859 0
vt 0.83343 0.90859 0
vt 0.83343 0.700405 0
vt 0.902825 0.700405 0
vt 0.902825 0.977986 0
vt 0.833429 0.977986 0
vt 0.764034 0.90859 0
vt 0.694639 0.90859 0
vt 0.694639 0.804498 0
vt 0.764034 0.804498 0
vt 0.694639 0.700405 0
vt 0.764034 0.700405 0
vt 0.97222 0.804498 0
vt 0.97222 0.90859 0
vt 0.97222 0.700405 0
vt 0.833429 0.63101 0
vt 0.902825 0.63101 0
vt 0.110906 0.425123 0
vt 0.180302 0.425123 0
vt 0.180302 0.529216 0
vt 0.110906 0.529216 0
vt 0.110906 0.32103 0
vt 0.180302 0.32103 0
vt 0.180302 0.598611 0
vt 0.110906 0.598611 0
vt 0.319092 0.529216 0
vt 0.249697 0.529216 0
vt 0.249697 0.425123 0
vt 0.319092 0.425123 0
vt 0.249697 0.32103 0
vt 0.319092 0.32103 0
vt 0.0415113 0.425123 0
vt 0.0415113 0.529216 0
vt 0.0415113 0.32103 0
vt 0.180302 0.251635 0
vt 0.110906 0.251635 0
vt 0.839335 0.203811 0
vt 0.90873 0.203811 0
vt 0.90873 0.307904 0
vt 0.839335 0.307904 0
vt 0.839335 0.099718 0
vt 0.908731 0.099718 0
vt 0.90873 0.377299 0
vt 0.839335 0.377299 0
vt 0.76994 0.307904 0
vt 0.700545 0.307904 0
vt 0.700545 0.203811 0
vt 0.76994 0.203811 0
vt 0.700545 0.0997181 0
vt 0.76994 0.099718 0
vt 0.978126 0.203811 0
vt 0.978126 0.307904 0
vt 0.978126 0.099718 0
vt 0.839335 0.0303229 0
vt 0.90873 0.0303229 0
vt 0.348146 0.184777 0
vt 0.417542 0.184777 0
vt 0.417542 0.28887 0
vt 0.348146 0.28887 0
vt 0.348146 0.0806842 0
vt 0.417542 0.0806842 0
vt 0.417542 0.358265 0
vt 0.348146 0.358265 0
vt 0.556332 0.28887 0
vt 0.486937 0.28887 0
vt 0.486937 0.184777 0
vt 0.556332 0.184777 0
vt 0.486937 0.0806842 0
vt 0.556332 0.0806842 0
vt 0.278751 0.184777 0
vt 0.278751 0.28887 0
vt 0.278751 0.0806842 0
vt 0.348146 0.0112893 0
vt 0.417542 0.0112891 0

# 19 vertex normals
vn 3.97363e-08 0 1
vn 0 1 1.19209e-07
vn -1.98682e-08 9.93411e-09 -1
vn 0 -1 -5.98373e-08
vn 0.999998 -3.97363e-08 0.00216043
vn 0.999998 -3.97363e-08 0.00216043
vn -0.999998 0 -0.00216043
vn 0 0 1
vn 0 1 0
vn 0 0 -1
vn 0 -1 0
vn 1 0 0
vn -1 0 0
vn -1 -1.93575e-16 0
vn -1 -9.45291e-17 -2.32831e-18
vn 1 -4.0625e-16 0
vn 1 -2.08323e-16 1.47387e-18
vn 1 -2.08323e-16 1.47387e-18
vn 0 -1 5.96046e-08

# Mesh 'Body1' with 12 faces
g Body1
usemtl lambert1
f  1/1/1 2/2/1 3/3/1
f  1/1/1 3/3/1 4/4/1
f  4/4/2 3/3/2 5/5/2
f  4/4/2 5/5/2 6/6/2
f  6/7/3 5/8/3 7/9/3
f  6/7/3 7/9/3 8/10/3
f  8/11/4 7/12/4 2/2/4
f  8/11/4 2/2/4 1/1/4
f  2/2/5 7/9/6 5/8/5
f  2/2/5 5/8/5 3/3/5
f  8/13/7 1/1/7 4/4/7
f  8/13/7 4/4/7 6/14/7

# Mesh 'Head1' with 12 faces
g Head1
usemtl lambert1
f  9/15/8 10/16/8 11/17/8
f  9/15/8 11/17/8 12/18/8
f  12/18/9 11/17/9 13/19/9
f  12/18/9 13/19/9 14/20/9
f  14/21/10 13/22/10 15/23/10
f  14/21/10 15/23/10 16/24/10
f  16/25/11 15/26/11 10/16/11
f  16/25/11 10/16/11 9/15/11
f  10/16/12 15/23/12 13/22/12
f  10/16/12 13/22/12 11/17/12
f  16/27/13 9/15/13 12/18/13
f  16/27/13 12/18/13 14/28/13

# Mesh 'ArmLeft1' with 20 faces
g ArmLeft1
usemtl lambert1
f  17/29/8 18/30/8 19/31/8
f  17/29/8 19/31/8 20/32/8
f  21/33/8 18/30/8 17/29/8
f  21/33/8 22/34/8 18/30/8
f  20/32/9 19/31/9 23/35/9
f  20/32/9 23/35/9 24/36/9
f  24/37/10 23/38/10 25/39/10
f  24/37/10 25/39/10 26/40/10
f  26/40/10 25/39/10 27/41/10
f  26/40/10 27/41/10 28/42/10
f  18/30/12 25/43/12 23/44/12
f  18/30/12 23/44/12 19/31/12
f  22/34/12 25/43/12 18/30/12
f  22/34/12 27/45/12 25/43/12
f  26/40/13 17/29/13 20/32/13
f  26/40/13 20/32/13 24/37/13
f  28/42/13 17/29/13 26/40/13
f  28/42/13 21/33/13 17/29/13
f  22/34/11 21/33/11 28/46/11
f  22/34/11 28/46/11 27/47/11

# Mesh 'ArmRight1' with 20 faces
g ArmRight1
usemtl lambert1
f  29/48/8 30/49/8 31/50/8
f  29/48/8 31/50/8 32/51/8
f  33/52/8 30/49/8 29/48/8
f  33/52/8 34/53/8 30/49/8
f  32/51/9 31/50/9 35/54/9
f  32/51/9 35/54/9 36/55/9
f  36/56/10 35/57/10 37/58/10
f  36/56/10 37/58/10 38/59/10
f  38/59/10 37/58/10 39/60/10
f  38/59/10 39/60/10 40/61/10
f  30/49/12 37/58/12 35/57/12
f  30/49/12 35/57/12 31/50/12
f  34/53/12 37/58/12 30/49/12
f  34/53/12 39/60/12 37/58/12
f  38/62/13 29/48/13 32/51/13
f  38/62/13 32/51/13 36/63/13
f  40/64/13 29/48/13 38/62/13
f  40/64/13 33/52/13 29/48/13
f  39/65/11 34/53/11 33/52/11
f  39/65/11 33/52/11 40/66/11

# Mesh 'LegLeft1' with 20 faces
g LegLeft1
usemtl lambert1
f  41/67/8 42/68/8 21/69/8
f  41/67/8 21/69/8 43/70/8
f  44/71/8 42/68/8 41/67/8
f  44/71/8 45/72/8 42/68/8
f  43/70/9 21/69/9 28/73/9
f  43/70/9 28/73/9 46/74/9
f  46/75/10 28/76/10 47/77/10
f  46/75/10 47/77/10 48/78/10
f  48/78/10 47/77/10 49/79/10
f  48/78/10 49/79/10 50/80/10
f  42/68/12 47/81/12 28/82/12
f  42/68/12 28/82/12 21/69/12
f  45/72/12 47/81/12 42/68/12
f  45/72/12 49/83/12 47/81/12
f  48/78/14 41/67/14 43/70/14
f  48/78/14 43/70/14 46/75/14
f  50/80/15 41/67/14 48/78/14
f  50/80/15 44/71/15 41/67/14
f  45/72/11 44/71/11 50/84/11
f  45/72/11 50/84/11 49/85/11

# Mesh 'LegRight1' with 20 faces
g LegRight1
usemtl lambert1
f  51/86/8 52/87/8 53/88/8
f  51/86/8 53/88/8 54/89/8
f  55/90/8 52/87/8 51/86/8
f  55/90/8 56/91/8 52/87/8
f  54/89/9 53/88/9 57/92/9
f  54/89/9 57/92/9 58/93/9
f  58/94/10 57/95/10 59/96/10
f  58/94/10 59/96/10 60/97/10
f  60/97/10 59/96/10 61/98/10
f  60/97/10 61/98/10 62/99/10
f  52/87/16 59/96/16 57/95/16
f  52/87/16 57/95/16 53/88/16
f  56/91/17 59/96/16 52/87/16
f  56/91/17 61/98/18 59/96/16
f  60/100/13 51/86/13 54/89/13
f  60/100/13 54/89/13 58/101/13
f  62/102/13 51/86/13 60/100/13
f  62/102/13 55/90/13 51/86/13
f  56/91/19 55/90/19 62/103/19
f  56/91/19 62/103/19 61/104/19

